<svg xmlns="http://www.w3.org/2000/svg" xmlns:xlink="http://www.w3.org/1999/xlink" viewBox="0 0 24 20" version="1.1">
    <!-- Generator: Sketch 49.3 (51167) - http://www.bohemiancoding.com/sketch -->
    <title>Your Basket</title>
    <desc>Created with Sketch.</desc>
    <defs></defs>
    <g id="Symbols" stroke="none" stroke-width="1" fill="none" fill-rule="evenodd" stroke-linecap="round" stroke-linejoin="round">
        <g id="desktop-tier-1-v1" transform="translate(-967.000000, -48.000000)" stroke="#FFFFFF" stroke-width="1.2">
            <g id="Group-2" transform="translate(882.000000, 49.000000)">
                <g id="icons">
                    <path d="M100.94933,7.29932475 L98.3505135,0.646655413 C98.1987114,0.278223254 97.8542023,0 97.4487906,0 L96.2125576,0 C95.783512,0.000949567419 95.4117331,0.276324119 95.2572039,0.666596328 L92.5583981,7.29932475 L106.617822,7.29932475 C107.201397,7.29932475 107.674074,7.79309981 107.674074,8.40177253 C107.674074,8.58503904 107.631351,8.75691074 107.556814,8.90884153 L104.440779,16.577548 C103.970829,17.4283604 103.090922,18 102.082847,18 L91.5848646,18 C90.5904242,18 89.7177891,17.4407048 89.2423848,16.606035 L86.1190783,8.9126398 C86.0427228,8.75975944 86,8.58693817 86,8.40177253 C86,7.79309981 86.4717683,7.29932475 87.0544341,7.29932475 L90.1741045,7.29932475" id="basket"></path>
                </g>
            </g>
        </g>
    </g>
</svg>
